<?xml version="1.0" ?>
<!-- Uploaded to: SVG Repo, www.svgrepo.com, Generator: SVG Repo Mixer Tools -->
<svg fill="#000000" width="800px" height="800px" viewBox="0 0 128 128" id="Layer_1" version="1.1" xml:space="preserve" xmlns="http://www.w3.org/2000/svg" xmlns:xlink="http://www.w3.org/1999/xlink">
<g>
<path d="M86.5,114.1c-0.5,2.9-3,4.9-5.9,4.9H34v8h46.6c6.8,0,12.6-4.9,13.8-11.5l6.4-36c0.7-4.1-0.4-8.3-3-11.4   c-2.7-3.2-6.6-5-10.7-5H71.2c1.2-3.7,2.8-9.1,4.1-16.2l0.6-4.2c0.9-6.6-3.7-12.6-10.2-13.5c-3.2-0.4-6.3,0.4-8.9,2.3   c-2.6,1.9-4.2,4.8-4.7,7.9l-0.6,4c-0.1,0.5-0.2,1-0.2,1.5c-0.1,0.5-0.2,1-0.3,1.5C47.9,61,36.3,72.8,21.3,76.6L16,77.9V127h8V84.1   c17.5-4.7,31.2-18.7,34.9-36c0.1-0.6,0.2-1.2,0.4-1.8c0.1-0.6,0.2-1.2,0.3-1.8l0.6-4c0.1-1.1,0.7-2,1.6-2.6c0.9-0.6,1.9-0.9,3-0.8   c2.2,0.3,3.7,2.3,3.4,4.5l-0.5,3.9c-2.1,11.6-5,18.3-5.5,19.6l-0.3,0.8l0,5.2h25.5c1.8,0,3.5,0.8,4.6,2.1c1.1,1.4,1.6,3.2,1.3,4.9   L86.5,114.1z"/>
</g>
</svg>