<?xml version="1.0" encoding="utf-8"?>

<!DOCTYPE svg PUBLIC "-//W3C//DTD SVG 1.1//EN" "http://www.w3.org/Graphics/SVG/1.1/DTD/svg11.dtd">
<!-- Uploaded to: SVG Repo, www.svgrepo.com, Generator: SVG Repo Mixer Tools -->
<svg height="800px" width="800px" version="1.1" id="_x32_" xmlns="http://www.w3.org/2000/svg" xmlns:xlink="http://www.w3.org/1999/xlink" 
	 viewBox="0 0 512 512"  xml:space="preserve">
<style type="text/css">
	.st0{fill:#000000;}
</style>
<g>
	<path class="st0" d="M245.685,207.957c0-27.625-16.214-50.386-47.192-55.47c-4.265,1.419-8.801,2.215-13.536,2.215
		c-4.734,0-9.286-0.796-13.551-2.215c-30.971,5.084-47.177,27.845-47.177,55.47h60.728H245.685z"/>
	<path class="st0" d="M184.957,144.854c18.354,0,33.232-14.878,33.232-33.232v-9.431c0-18.362-14.878-33.24-33.232-33.24
		c-18.361,0-33.24,14.878-33.24,33.24v9.431C151.717,129.976,166.596,144.854,184.957,144.854z"/>
	<path class="st0" d="M385.86,207.957c0-27.625-16.214-50.386-47.186-55.47c-4.264,1.419-8.809,2.215-13.543,2.215
		c-4.734,0-9.28-0.796-13.543-2.215c-30.971,5.084-47.178,27.845-47.178,55.47h60.721H385.86z"/>
	<path class="st0" d="M325.131,144.854c18.354,0,33.24-14.878,33.24-33.232v-9.431c0-18.362-14.886-33.24-33.24-33.24
		c-18.353,0-33.24,14.878-33.24,33.24v9.431C291.892,129.976,306.778,144.854,325.131,144.854z"/>
	<path class="st0" d="M511.102,427.684l-81.442-189.173c-1.73-4.044-5.706-6.662-10.106-6.662H92.453
		c-4.4,0-8.376,2.618-10.113,6.654L0.898,427.684c-1.464,3.399-1.123,7.314,0.918,10.41c2.033,3.088,5.493,4.954,9.196,4.954
		h153.467c13.104-22.147,35.683-38.217,67.383-43.414c7.298,2.42,15.083,3.786,23.187,3.786c8.103,0,15.888-1.366,23.186-3.786
		c31.7,5.198,54.28,21.267,67.383,43.414h155.364c3.71,0,7.162-1.866,9.203-4.954C512.225,434.998,512.567,431.084,511.102,427.684z
		 M311.937,329.68c0,31.418-25.462,56.89-56.889,56.89c-31.427,0-56.889-25.471-56.889-56.89v-16.146
		c0-31.419,25.462-56.889,56.889-56.889c31.426,0,56.889,25.47,56.889,56.889V329.68z"/>
</g>
</svg>