<svg width="14" height="15" viewBox="0 0 14 15" fill="none" xmlns="http://www.w3.org/2000/svg">
<path d="M8.31275 2.46092C8.63841 2.32732 8.9265 2.31291 9.177 2.41767C9.43054 2.52983 9.62411 2.74875 9.75771 3.07441L12.1625 8.93633C12.2991 9.26939 12.315 9.56118 12.2103 9.81168C12.0981 10.0652 11.8792 10.2588 11.5535 10.3924L8.8224 11.5128C7.93423 11.8771 7.15548 11.9286 6.48613 11.667C5.81243 11.4159 5.31161 10.8907 4.98369 10.0914C4.65577 9.29201 4.64193 8.56269 4.94218 7.90341C5.23805 7.25456 5.83008 6.74796 6.71825 6.3836L8.43908 5.67766L7.71492 3.91243C7.58132 3.58677 7.56169 3.2965 7.65601 3.04163C7.75337 2.79416 7.97229 2.60059 8.31275 2.46092ZM9.08125 7.24306L7.71569 7.80326C7.33082 7.96115 7.06816 8.16401 6.92772 8.41186C6.79032 8.66711 6.78993 8.96127 6.92656 9.29433C7.06623 9.6348 7.27309 9.84394 7.54713 9.92175C7.82116 9.99957 8.15062 9.95953 8.53549 9.80164L9.90105 9.24144L9.08125 7.24306Z" fill="#E9DBFF"/>
<path d="M2.15399 11.2778C1.80665 11.2207 1.55381 11.0819 1.39549 10.8613C1.23845 10.6328 1.18847 10.3449 1.24554 9.99754L2.27283 3.74538C2.3312 3.39014 2.47067 3.13336 2.69126 2.97503C2.91975 2.81799 3.20766 2.76801 3.555 2.82508L6.46794 3.30371C7.41524 3.45935 8.10524 3.82405 8.53794 4.3978C8.97983 4.96495 9.13074 5.67481 8.99065 6.52738C8.85057 7.37995 8.47981 8.00814 7.87838 8.41198C7.28614 8.80921 6.51637 8.93 5.56907 8.77435L3.73368 8.47278L3.42433 10.3555C3.36726 10.7029 3.23173 10.9603 3.01773 11.1278C2.80504 11.2875 2.51712 11.3374 2.15399 11.2778ZM4.00801 6.80317L5.46448 7.04248C5.87498 7.10993 6.20501 7.07497 6.45458 6.93762C6.70545 6.79237 6.86007 6.54213 6.91844 6.18689C6.97811 5.82376 6.91169 5.5372 6.71919 5.32721C6.52669 5.11723 6.22519 4.97851 5.81469 4.91106L4.35822 4.67175L4.00801 6.80317Z" fill="#6C2BD9"/>
</svg>
